Coordinates
version=1
nRows=8
nColumns=36
inDegrees=yes

Units are S.I. units (second, meters, Newtons, ...)
If the header above contains a line with 'inDegrees', this indicates whether rotational values are in degrees (yes) or radians (no).

endheader
time	pelvis_tilt	pelvis_list	pelvis_rotation	pelvis_tx	pelvis_ty	pelvis_tz	hip_flexion_r	hip_adduction_r	hip_rotation_r	knee_angle_r	knee_angle_r_beta	ankle_angle_r	subtalar_angle_r	mtp_angle_r	hip_flexion_l	hip_adduction_l	hip_rotation_l	knee_angle_l	knee_angle_l_beta	ankle_angle_l	subtalar_angle_l	mtp_angle_l	lumbar_extension	lumbar_bending	lumbar_rotation	arm_flex_r	arm_add_r	arm_rot_r	elbow_flex_r	pro_sup_r	arm_flex_l	arm_add_l	arm_rot_l	elbow_flex_l	pro_sup_l
      1.00000000	     -0.11770662	     -1.62323742	      5.56145045	      1.13077781	      0.95919104	     -0.18508264	     24.44818152	      1.83851104	      2.80055187	      9.96617791	      0.17394262	      0.38436096	     -5.04340331	     -7.38035572	    -11.37464322	      1.80641934	      6.46204474	      3.48933358	      0.06090036	     17.28733784	     16.70991389	     -7.38035572	     -4.80759390	     -3.28380571	     -7.14154911	      3.24049157	     -6.67543687	      0.38978487	     32.82882639	    108.21460746	     11.67729464	    -13.48506366	     21.67886301	     37.02403259	    111.04330128
      1.01000000	     -0.38628241	     -1.54374542	      6.08524986	      1.14190944	      0.95693954	     -0.18531093	     24.33569848	      1.68805973	      2.77257998	      6.99563863	      0.12209693	      0.70527648	     -3.90843636	     -7.38211894	    -11.75303666	      1.69782787	      6.34228396	      3.58971130	      0.06265228	     17.68818354	     17.51008987	     -7.38211894	     -4.63078241	     -3.46066883	     -7.61259550	      2.76159656	     -6.67882610	     -0.39959706	     32.30887021	    108.00862245	     12.23758642	    -13.44428942	     21.62542398	     37.24554632	    111.05531165
      1.02000000	     -0.49010671	     -1.50699973	      6.60106877	      1.15320956	      0.95491585	     -0.18556754	     24.18438571	      1.57221804	      2.05668546	      4.76044209	      0.08308539	      1.53168755	     -1.84651650	     -7.38902053	    -12.18242137	      1.49301399	      5.59257020	      3.92162858	      0.06844533	     18.43235223	     19.30553499	     -7.38902053	     -4.66354789	     -3.56077451	     -7.85372485	      2.15549983	     -6.55875855	     -2.29590676	     32.02772959	    107.46615008	     12.96487729	    -13.28578770	     21.74706738	     37.36291027	    111.08173235
      1.03000000	     -0.84109629	     -1.37452231	      7.03795027	      1.16441324	      0.95258493	     -0.18570353	     24.45342060	      1.41868294	      1.84650809	      3.32345964	      0.05800531	      1.88873359	     -1.58077355	     -7.38939619	    -12.42206880	      1.48897835	      5.57636545	      4.08202120	      0.07124471	     18.52752623	     19.33514052	     -7.38939619	     -4.45582735	     -3.81880970	     -8.15629677	      1.66946327	     -6.70791065	     -2.51186633	     31.52656492	    107.39780132	     13.52518639	    -13.17203556	     21.70028543	     37.60927507	    111.09546826
      1.04000000	     -0.87525254	     -1.47871318	      7.58646118	      1.17601579	      0.95089777	     -0.18606132	     24.21635201	      1.47604082	      1.31306494	      2.12823142	      0.03714465	      2.62713279	      0.58524608	     -7.39287899	    -12.80716197	      1.14954607	      5.66061780	      4.69804536	      0.08199636	     19.15632143	     19.91928246	     -7.39287899	     -4.44253739	     -3.69358180	     -8.72043554	      1.57447215	     -6.57148539	     -4.18589568	     30.35653550	    106.92213882	     13.93104612	    -13.07732841	     21.82840518	     37.52126147	    111.10793274
      1.05000000	     -1.05329341	     -1.46123380	      7.96044227	      1.18770389	      0.94906123	     -0.18622422	     24.36217963	      1.50552904	      1.39954704	      1.91957355	      0.03350288	      2.75859556	      0.70448317	     -7.39305919	    -13.19030115	      1.00133019	      5.66825339	      4.96233069	      0.08660901	     19.11251205	     19.93127396	     -7.39305919	     -4.34549366	     -3.71916018	     -9.07704687	      1.10723788	     -6.83292807	     -4.34773670	     30.03769892	    106.87475177	     14.25199333	    -12.97999632	     21.80537864	     37.66312621	    111.11606752
      1.06000000	     -1.21936050	     -1.59708290	      8.52269939	      1.19953188	      0.94746304	     -0.18663948	     24.25908149	      1.61506882	      1.25018052	      1.68531488	      0.02941429	      3.42628187	      1.39537561	     -7.39443869	    -13.19022229	      0.65405922	      5.72482803	      6.01112429	      0.10491391	     19.33623460	     20.01150258	     -7.39443869	     -4.18286181	     -3.56556049	     -9.61333948	      1.03958136	     -6.80186158	     -5.50626058	     28.86458479	    106.55422045	     14.55486681	    -12.79770154	     21.84430092	     37.59598418	    111.11135012
      1.07000000	     -1.29461047	     -1.78192771	      8.93461437	      1.21175597	      0.94613535	     -0.18689903	     24.14821509	      1.87080193	      1.33909891	      2.06226578	      0.03599333	      3.48222927	      1.58835329	     -7.39510521	    -13.45980585	      0.25237012	      5.83381302	      6.70264002	      0.11698314	     19.23041379	     20.11206058	     -7.39510521	     -4.14075558	     -3.30997504	     -9.90529190	      0.70424381	     -6.99802466	     -6.10248531	     28.22077610	    106.38581641	     14.76734123	    -12.55807149	     21.87296339	     37.72329594	    111.11942718
